<svg width="33" height="33" viewBox="0 0 33 33" fill="none" xmlns="http://www.w3.org/2000/svg">
<path d="M12.6324 15.5365H13.5828V19.8661H12.6324V15.5365ZM29.04 16.5001C29.04 19.1257 27.997 21.6438 26.1404 23.5005C24.2838 25.3571 21.7657 26.4001 19.14 26.4001H4.62002C4.44498 26.4001 4.27711 26.3306 4.15333 26.2068C4.02956 26.083 3.96002 25.9151 3.96002 25.7401V16.5001C3.96002 13.8745 5.00305 11.3564 6.85966 9.49974C8.71628 7.64313 11.2344 6.6001 13.86 6.6001H19.14C21.7657 6.6001 24.2838 7.64313 26.1404 9.49974C27.997 11.3564 29.04 13.8745 29.04 16.5001ZM21.6216 15.3121C21.514 14.9891 21.3062 14.7088 21.0286 14.5118C20.7509 14.3148 20.4177 14.2114 20.0772 14.2165H18.6252C18.6676 13.9101 18.694 13.6017 18.7044 13.2925C18.702 12.8989 18.5436 12.5223 18.264 12.2451C17.9845 11.968 17.6065 11.813 17.2128 11.8141C16.9399 11.8126 16.6743 11.9029 16.4589 12.0704C16.2434 12.238 16.0905 12.4732 16.0248 12.7381C15.9491 13.1 15.7999 13.4426 15.5864 13.7445C15.373 14.0465 15.0999 14.3015 14.784 14.4937H14.7708C14.7117 14.4084 14.6328 14.3386 14.5408 14.2903C14.4489 14.2421 14.3467 14.2167 14.2428 14.2165H11.9724C11.7974 14.2165 11.6295 14.286 11.5057 14.4098C11.382 14.5336 11.3124 14.7015 11.3124 14.8765V20.5261C11.3124 20.7011 11.382 20.869 11.5057 20.9928C11.6295 21.1166 11.7974 21.1861 11.9724 21.1861H14.2428C14.4016 21.1879 14.5555 21.1309 14.6749 21.0261C14.7943 20.9214 14.8708 20.7762 14.8896 20.6185H18.81C19.191 20.6206 19.5625 20.4996 19.8693 20.2737C20.176 20.0478 20.4017 19.7289 20.5128 19.3645L21.318 16.7773C21.4835 16.5759 21.5976 16.3374 21.6505 16.0821C21.7034 15.8269 21.6935 15.5626 21.6216 15.3121ZM20.0772 15.5365H17.7672C17.659 15.5341 17.5531 15.5052 17.4587 15.4523C17.3643 15.3993 17.2844 15.324 17.226 15.2329C17.1665 15.1422 17.1295 15.0386 17.118 14.9307C17.1065 14.8228 17.1209 14.7137 17.16 14.6125C17.3165 14.1903 17.3926 13.7426 17.3844 13.2925C17.3837 13.2708 17.3787 13.2494 17.3697 13.2296C17.3607 13.2098 17.3478 13.1921 17.3318 13.1773C17.3159 13.1626 17.2971 13.1511 17.2767 13.1437C17.2562 13.1363 17.2345 13.133 17.2128 13.1341C17.0942 13.754 16.8199 14.3336 16.4159 14.8185C16.0118 15.3033 15.4912 15.6776 14.9028 15.9061V19.2985H18.81C18.9099 19.2971 19.0068 19.2646 19.0873 19.2054C19.1678 19.1462 19.2277 19.0634 19.2588 18.9685L20.0904 16.2493C20.0904 16.2361 20.1036 16.2361 20.1036 16.2229C20.1181 16.1621 20.1503 16.107 20.196 16.0645C20.2275 16.0217 20.2628 15.9819 20.3016 15.9457C20.3328 15.9129 20.3542 15.8721 20.3636 15.8278C20.3729 15.7835 20.3697 15.7375 20.3544 15.6949C20.33 15.6433 20.2904 15.6004 20.2408 15.572C20.1912 15.5437 20.1341 15.5313 20.0772 15.5365Z" fill="white"/>
</svg>
