<svg width="61" height="60" viewBox="0 0 61 60" fill="none" xmlns="http://www.w3.org/2000/svg">
<path d="M59.4936 13.7273L55.0316 12.3636C54.9406 12.1818 54.8495 12 54.7585 11.8182L56.9439 7.63636C57.126 7.27273 57.035 6.81818 56.7618 6.54545L53.5747 3.36364C53.3015 3.09091 52.8462 3 52.482 3.18182L48.2932 5.36364C48.1111 5.27273 47.929 5.18182 47.6558 5.09091L46.2899 0.636364C46.2899 0.272727 45.9257 0 45.5614 0H41.0084C40.6442 0 40.2799 0.272727 40.0978 0.636364L38.7319 5.09091C38.5498 5.18182 38.3677 5.27273 38.0945 5.36364L33.9058 3.18182C33.5415 3 33.0862 3.09091 32.813 3.36364L29.6259 6.54545C29.3528 6.81818 29.2617 7.27273 29.4438 7.63636L31.6293 11.8182C31.5382 12 31.4471 12.1818 31.3561 12.4545L28.4422 13.3636C27.5316 13.1818 25.4372 12.8182 24.5266 12.9091C11.6872 12 0.0314941 22.6364 0.0314941 36.3636C0.0314941 49.4545 10.6855 60 23.7071 60C36.7286 60 47.3826 49.4545 47.3826 36.3636C47.3826 34.7273 47.2005 33.0909 46.8363 31.5455L47.7469 28.6364C47.929 28.5455 48.1111 28.4545 48.2932 28.3636L52.482 30.5455C52.8462 30.7273 53.3015 30.6364 53.5747 30.3636L56.7618 27.1818C57.035 26.9091 57.126 26.4545 56.9439 26.0909L54.7585 21.9091C54.8495 21.7273 54.9406 21.5455 55.0316 21.3636L59.4936 20C59.8578 19.9091 60.131 19.5455 60.131 19.0909V14.5455C60.131 14.1818 59.8578 13.8182 59.4936 13.7273ZM42.2833 47.9091C40.371 47.3636 38.3677 46.9091 36.1823 46.5455C36.6376 43.6364 36.9107 40.5455 36.9107 37.3636H45.5614C45.3793 41.0909 44.2866 44.7273 42.2833 47.9091ZM33.9058 55.6364C34.7253 53.3636 35.3627 50.9091 35.9091 48.2727C37.8213 48.6364 39.6425 49 41.2816 49.4545C39.1872 52.0909 36.7286 54.1818 33.9058 55.6364ZM6.22356 49.4545C7.86264 49 9.68384 48.6364 11.5961 48.2727C12.0514 50.9091 12.7799 53.4545 13.5994 55.6364C10.6855 54.1818 8.22688 52.0909 6.22356 49.4545ZM13.5084 17.0909C12.6888 19.3636 12.0514 21.8182 11.5961 24.4545C9.68384 24.0909 7.86264 23.7273 6.22356 23.2727C8.13582 20.7273 10.5944 18.6364 13.5084 17.0909ZM31.5382 56.7273C28.9885 57.7273 26.8031 58 24.6177 58.0909V47.2727C27.8958 47.2727 30.9918 47.5455 33.9968 48C33.4505 51.1818 32.5399 54.1818 31.5382 56.7273ZM13.4173 48C16.4223 47.5455 19.5183 47.3636 22.7965 47.2727V58.0909C20.611 58 18.4256 57.6364 15.8759 56.7273C14.8742 54.2727 13.9637 51.2727 13.4173 48ZM34.3611 46.1818C31.265 45.7273 27.9869 45.5455 24.6177 45.4545V37.2727H35.0895C34.9985 40.3636 34.7253 43.3636 34.3611 46.1818ZM22.7965 45.4545C19.4272 45.4545 16.1491 45.7273 13.0531 46.1818C12.5978 43.3636 12.3246 40.3636 12.3246 37.2727H22.7965V45.4545ZM12.3246 35.4545C12.3246 32.3636 12.5978 29.3636 13.0531 26.5455C16.1491 27 19.4272 27.1818 22.7965 27.2727V35.4545H12.3246ZM13.4173 24.7273C14.0547 21.4545 14.8742 18.4545 15.967 16C18.3345 15.0909 20.611 14.7273 22.8875 14.6364V25.4545C19.5183 25.3636 16.4223 25.1818 13.4173 24.7273ZM5.13085 24.8182C7.0431 25.3636 9.04642 25.8182 11.2319 26.1818C10.7766 29.0909 10.5034 32.1818 10.5034 35.3636H1.85269C2.03481 31.6364 3.12753 28 5.13085 24.8182ZM10.5034 37.2727C10.5034 40.4545 10.7766 43.5455 11.2319 46.4545C9.04642 46.8182 6.95204 47.2727 5.13085 47.8182C3.12753 44.7273 2.03481 41.0909 1.85269 37.2727H10.5034ZM45.3793 33.6364C45.4704 34.2727 45.4704 34.8182 45.5614 35.4545H36.9107C36.9107 33.2727 36.7286 31.1818 36.5465 29.1818L38.1856 28.2727C38.3677 28.3636 38.5498 28.4545 38.823 28.5455L40.1889 33C40.2799 33.3636 40.6442 33.6364 41.0995 33.6364H45.3793ZM34.7253 30.0909C34.9074 31.8182 34.9985 33.6364 34.9985 35.4545H24.6177V27.2727C26.3478 27.2727 27.9869 27.1818 29.717 27.0909L29.8081 27.1818L32.9952 30.3636C33.2683 30.6364 33.7236 30.7273 34.0879 30.5455L34.7253 30.0909ZM30.0812 25.1818C28.26 25.3636 26.4389 25.4545 24.6177 25.4545V14.5455C25.164 14.5455 25.164 14.5455 26.4389 14.7273V19.0909C26.4389 19.4545 26.712 19.8182 27.0763 20L31.5382 21.3636C31.6293 21.5455 31.7203 21.7273 31.8114 22L30.0812 25.1818ZM58.3098 18.3636L54.03 19.7273C53.7568 19.8182 53.4836 20 53.3926 20.2727C53.3015 20.6364 53.1194 21.0909 52.8462 21.5455C52.7551 21.8182 52.7551 22.0909 52.8462 22.3636L54.9406 26.3636L52.6641 28.5455L48.6575 26.4545C48.3843 26.3636 48.1111 26.2727 47.8379 26.4545C47.4737 26.6364 47.0184 26.8182 46.6541 27C46.381 27.0909 46.1988 27.2727 46.1078 27.6364L44.8329 31.8182H41.6458L40.2799 27.5455C40.1889 27.2727 40.0068 27 39.7336 26.9091C39.3694 26.8182 38.9141 26.6364 38.5498 26.3636C38.2766 26.2727 38.0035 26.2727 37.7303 26.3636L35.0895 27.7273L33.8147 28.4545L31.5382 26.3636L33.6326 22.3636C33.7236 22.0909 33.8147 21.8182 33.6326 21.5455C33.4505 21.0909 33.2683 20.7273 33.0862 20.2727C32.9952 20 32.813 19.8182 32.4488 19.7273L28.26 18.3636V15.1818L32.5399 13.8182C32.813 13.7273 33.0862 13.5455 33.1773 13.2727C33.2683 12.9091 33.4505 12.4545 33.7236 12C33.8147 11.7273 33.8147 11.4545 33.7236 11.1818L31.6293 7.18182L33.8147 5L37.8213 7.09091C38.0035 7.27273 38.2766 7.27273 38.5498 7.18182C39.0051 7 39.3694 6.81818 39.8246 6.63636C40.0978 6.54545 40.2799 6.36364 40.371 6.09091L41.7369 1.81818H44.924L46.2899 6.09091C46.2899 6.36364 46.472 6.54545 46.7452 6.63636C47.2005 6.72727 47.5647 6.90909 47.929 7.18182C48.2932 7.27273 48.5664 7.27273 48.8396 7.18182L52.7551 5.09091L55.0316 7.27273L52.9373 11.2727C52.8462 11.5455 52.7551 11.8182 52.9373 12.0909C53.1194 12.5455 53.3015 12.9091 53.4836 13.3636C53.5747 13.6364 53.7568 13.8182 54.121 13.9091L58.4009 15.2727V18.3636H58.3098Z" fill="#0074D9"/>
<path d="M43.2849 9C38.9141 9 35.4538 12.5455 35.4538 16.8182C35.4538 21.0909 39.0051 24.6364 43.2849 24.6364C47.5648 24.6364 51.1161 21.0909 51.1161 16.8182C51.1161 12.5455 47.6558 9 43.2849 9ZM43.2849 22.8182C39.9157 22.8182 37.275 20.0909 37.275 16.8182C37.275 13.5455 40.0068 10.8182 43.2849 10.8182C46.5631 10.8182 49.2949 13.5455 49.2949 16.8182C49.2949 20.0909 46.6542 22.8182 43.2849 22.8182Z" fill="#0074D9"/>
</svg>
