<svg width="61" height="60" viewBox="0 0 61 60" fill="none" xmlns="http://www.w3.org/2000/svg">
<path d="M30.083 56.0011C30.6362 56.0011 31.0846 55.5535 31.0846 55.0014C31.0846 54.4493 30.6362 54.0017 30.083 54.0017C29.5298 54.0017 29.0813 54.4493 29.0813 55.0014C29.0813 55.5535 29.5298 56.0011 30.083 56.0011Z" fill="#0074D9"/>
<path d="M40.7336 43.3819C45.3058 41.0027 48.9462 37.1615 51.072 32.4729C53.1979 27.7843 53.6863 22.5195 52.4592 17.5211C51.232 12.5227 48.3602 8.07961 44.3034 4.90303C40.2466 1.72645 35.2393 0 30.083 0C24.9266 0 19.9193 1.72645 15.8625 4.90303C11.8057 8.07961 8.93391 12.5227 7.70675 17.5211C6.4796 22.5195 6.96803 27.7843 9.09388 32.4729C11.2197 37.1615 14.8601 41.0027 19.4323 43.3819C6.556 44.3486 0.0332031 47.0768 0.0332031 51.5025C0.0332031 58.5254 16.3743 60 30.083 60C43.7916 60 60.1327 58.5254 60.1327 51.5025C60.1327 47.0768 53.6099 44.3486 40.7336 43.3819ZM9.04813 23.0108C9.04741 19.2406 10.064 15.5397 11.9912 12.2969C13.9183 9.05412 16.6849 6.38917 20.0003 4.58196C23.3157 2.77474 27.0575 1.89198 30.8328 2.02638C34.608 2.16078 38.2773 3.30738 41.4553 5.34576C44.6332 7.38414 47.2025 10.2391 48.8933 13.6106C50.5841 16.9822 51.3339 20.746 51.064 24.5066C50.7942 28.2673 49.5146 31.886 47.3596 34.9827C45.2047 38.0793 42.254 40.5397 38.8174 42.1052C38.709 42.1544 38.61 42.2221 38.5249 42.3052L33.5086 47.3307L33.4756 47.3637L30.742 50.1029C30.5691 50.2568 30.3478 50.3455 30.1163 50.3539C29.8848 50.3623 29.6576 50.2898 29.4739 50.1489L21.641 42.3152C21.5559 42.2321 21.4569 42.1644 21.3485 42.1152C17.6832 40.4371 14.5766 37.7457 12.3966 34.3599C10.2166 30.974 9.0546 27.0355 9.04813 23.0108ZM30.083 58.0006C12.7833 58.0006 2.03652 55.5103 2.03652 51.5025C2.03652 48.2265 9.2144 45.9511 21.7361 45.2373L23.6824 47.1828C17.3909 47.5357 9.04813 48.5584 9.04813 51.5025C9.04813 54.8295 19.6837 55.7013 26.0242 55.9302H26.0603C26.3259 55.9348 26.5826 55.834 26.7737 55.6498C26.9648 55.4656 27.0748 55.2131 27.0795 54.948C27.0841 54.6828 26.9831 54.4267 26.7985 54.236C26.6139 54.0452 26.361 53.9354 26.0954 53.9308C16.5055 53.5899 12.0531 52.2163 11.1586 51.5025C12.0391 50.8027 16.3572 49.4671 25.5955 49.0952L28.0997 51.6045C28.6422 52.0776 29.3385 52.3376 30.0589 52.3362C30.8133 52.334 31.5409 52.0571 32.1053 51.5575L34.5674 49.0952C43.8057 49.4671 48.1268 50.8027 49.0073 51.5025C48.1058 52.2163 43.6614 53.5899 34.0726 53.9318C33.8069 53.9364 33.554 54.0462 33.3694 54.237C33.1849 54.4277 33.0838 54.6838 33.0884 54.949C33.0931 55.2141 33.2031 55.4666 33.3942 55.6508C33.5853 55.835 33.842 55.9358 34.1076 55.9312H34.1437C40.4832 55.7013 51.1178 54.8295 51.1178 51.5025C51.1178 48.5594 42.776 47.5357 36.4846 47.1828L38.4298 45.2373C50.9515 45.9511 58.1294 48.2265 58.1294 51.5025C58.1294 55.5103 47.3826 58.0006 30.083 58.0006Z" fill="#0074D9"/>
<path d="M49.1144 23.0108C49.1144 19.2541 47.9982 15.5817 45.907 12.4581C43.8158 9.33444 40.8435 6.89987 37.366 5.46223C33.8884 4.02459 30.0618 3.64843 26.37 4.38134C22.6783 5.11424 19.2872 6.92329 16.6256 9.57971C13.964 12.2361 12.1514 15.6206 11.4171 19.3052C10.6828 22.9897 11.0596 26.8089 12.5001 30.2797C13.9405 33.7504 16.3799 36.717 19.5096 38.8041C22.6393 40.8912 26.3188 42.0052 30.0829 42.0052C35.1287 41.9997 39.9662 39.9967 43.5341 36.4358C47.102 32.8748 49.1089 28.0467 49.1144 23.0108ZM13.0547 23.0108C13.0547 19.6495 14.0534 16.3637 15.9245 13.5689C17.7956 10.7741 20.455 8.59576 23.5665 7.30945C26.678 6.02314 30.1018 5.68658 33.4049 6.34233C36.7081 6.99809 39.7422 8.61671 42.1237 10.9935C44.5051 13.3703 46.1269 16.3985 46.7839 19.6952C47.4409 22.9919 47.1037 26.4091 45.8149 29.5145C44.5261 32.6199 42.3435 35.2742 39.5433 37.1416C36.743 39.0091 33.4508 40.0058 30.0829 40.0058C25.5683 40.0008 21.24 38.2086 18.0477 35.0225C14.8554 31.8364 13.0598 27.5166 13.0547 23.0108Z" fill="#0074D9"/>
<path d="M39.0978 30.9386C39.2504 30.8507 39.377 30.7242 39.4649 30.5718C39.5529 30.4195 39.599 30.2467 39.5986 30.0708V21.4284L42.1028 20.4667V26.01C42.1028 26.2752 42.2083 26.5295 42.3962 26.7169C42.584 26.9044 42.8388 27.0097 43.1044 27.0097C43.3701 27.0097 43.6249 26.9044 43.8127 26.7169C44.0006 26.5295 44.1061 26.2752 44.1061 26.01V19.0121C44.0948 18.8121 44.0281 18.6191 43.9133 18.4547C43.7985 18.2904 43.6402 18.1611 43.456 18.0814L30.4345 13.0828C30.2027 12.9937 29.946 12.9937 29.7143 13.0828L16.7067 18.0814C16.518 18.154 16.3557 18.282 16.2413 18.4485C16.1268 18.615 16.0656 18.8122 16.0656 19.0141C16.0656 19.216 16.1268 19.4132 16.2413 19.5797C16.3557 19.7462 16.518 19.8742 16.7067 19.9468L20.5671 21.4244V30.0708C20.5668 30.2467 20.6129 30.4195 20.7008 30.5718C20.7888 30.7242 20.9154 30.8507 21.068 30.9386C23.7928 32.5747 26.9033 33.4612 30.0829 33.5078C33.2628 33.463 36.3737 32.5764 39.0978 30.9386ZM19.859 19.0121L30.0759 15.0862L40.3068 19.0121L30.0899 22.9379L19.859 19.0121ZM22.5704 29.483V22.1942L29.7283 24.9433C29.9601 25.0325 30.2167 25.0325 30.4485 24.9433L37.5953 22.1992V29.484C35.3171 30.8173 32.7238 31.52 30.0827 31.5199C27.4417 31.5197 24.8485 30.8166 22.5704 29.483Z" fill="#0074D9"/>
</svg>
