<svg width="61" height="60" viewBox="0 0 61 60" fill="none" xmlns="http://www.w3.org/2000/svg">
<path fill-rule="evenodd" clip-rule="evenodd" d="M38.4708 49.2163H21.8314C21.5071 49.2163 21.2445 48.954 21.2445 48.6304V48.592C21.2445 44.5943 19.7928 40.8168 17.1571 37.9553C13.9821 34.5086 12.334 30.026 12.5161 25.3335C12.6921 20.8047 14.5992 16.5619 17.8861 13.3867C21.1719 10.2127 25.4822 8.44697 30.0235 8.41486L30.1513 8.41431C39.8826 8.41431 47.7998 16.3184 47.7998 26.0337C47.7998 30.4087 46.1822 34.6039 43.2448 37.8461C40.5448 40.8267 39.0577 44.6178 39.0577 48.5214V48.6303C39.0577 48.9539 38.7949 49.2163 38.4708 49.2163ZM22.4097 48.0445H37.8909C38.0068 44.0192 39.5885 40.1353 42.3744 37.0602C45.1158 34.0338 46.6259 30.1179 46.6259 26.0338C46.6259 16.9646 39.2354 9.58634 30.1512 9.58634L30.0319 9.58676C21.2092 9.64904 14.0305 16.5858 13.689 25.3788C13.5189 29.7601 15.0573 33.9448 18.0211 37.162C20.7357 40.1094 22.2829 43.9553 22.4097 48.0445Z" fill="#0074D9"/>
<path fill-rule="evenodd" clip-rule="evenodd" d="M17.4898 26.713C17.2074 26.713 16.9584 26.509 16.9112 26.2216C16.7964 25.522 16.7524 24.8026 16.7801 24.0839C16.8856 21.366 18.0299 18.82 20.0021 16.9149C21.9734 15.0105 24.56 13.9511 27.285 13.9317C27.2864 13.9317 27.2879 13.9317 27.2893 13.9317C27.6115 13.9317 27.8738 14.1912 27.8762 14.5135C27.8785 14.8371 27.6176 15.1011 27.2935 15.1035C22.2511 15.1392 18.1483 19.1037 17.9531 24.1291C17.9283 24.7694 17.9675 25.4097 18.0696 26.0321C18.122 26.3515 17.9052 26.6526 17.5853 26.7051C17.5531 26.7104 17.5213 26.713 17.4898 26.713ZM29.8519 6.19221C29.5276 6.19221 29.265 5.93006 29.265 5.60632V0.58713C29.265 0.263387 29.5276 0.00109863 29.8519 0.00109863C30.176 0.00109863 30.4387 0.263388 30.4387 0.58713V5.60646C30.4387 5.93006 30.176 6.19221 29.8519 6.19221ZM40.3686 8.61524C40.2726 8.61524 40.175 8.59157 40.085 8.54188C39.8014 8.38534 39.6988 8.02865 39.8556 7.7456L42.2901 3.35368C42.4472 3.07077 42.8043 2.96821 43.0879 3.12475C43.3714 3.28143 43.4741 3.63798 43.3172 3.92117L40.8826 8.31295C40.7755 8.50617 40.5751 8.61524 40.3686 8.61524ZM47.8988 16.3755C47.6975 16.3755 47.5016 16.2721 47.3924 16.0864C47.2281 15.8074 47.3214 15.4483 47.6009 15.2843L51.9355 12.741C52.2153 12.5771 52.5746 12.6704 52.7389 12.9493C52.9031 13.2284 52.8098 13.5874 52.5303 13.7514L48.1957 16.2947C48.1021 16.3494 47.9998 16.3755 47.8988 16.3755ZM55.4645 26.5148C55.4592 26.5148 55.4541 26.5148 55.4489 26.5147L50.4228 26.384C50.0987 26.3756 49.843 26.1067 49.8513 25.7832C49.8598 25.4596 50.1353 25.2059 50.4533 25.2125L55.4794 25.3432C55.8034 25.3516 56.0592 25.6207 56.0508 25.9443C56.0426 26.2625 55.7814 26.5148 55.4645 26.5148ZM52.0289 39.2882C51.9159 39.2882 51.8017 39.2556 51.701 39.1878L47.5338 36.3796C47.2652 36.1984 47.1942 35.8342 47.3757 35.566C47.5569 35.298 47.9216 35.227 48.1905 35.4082L52.3578 38.2164C52.6263 38.3975 52.6972 38.7618 52.5158 39.0299C52.4026 39.1975 52.2175 39.2882 52.0289 39.2882ZM19.7939 8.73469C19.5873 8.73469 19.387 8.62562 19.2799 8.4324L16.8453 4.04048C16.6883 3.75729 16.7911 3.40088 17.0746 3.2442C17.3584 3.0878 17.7154 3.19008 17.8723 3.47313L20.307 7.86491C20.4639 8.14824 20.3612 8.50464 20.0775 8.66133C19.9876 8.71115 19.8901 8.73469 19.7939 8.73469ZM12.2637 16.4949C12.1626 16.4949 12.0603 16.4691 11.967 16.4141L7.63216 13.8708C7.3528 13.7069 7.25936 13.3478 7.42351 13.0687C7.58779 12.7898 7.94771 12.6964 8.22693 12.8606L12.5617 15.4037C12.8412 15.5677 12.9346 15.9269 12.7703 16.2058C12.6609 16.3916 12.4649 16.4949 12.2637 16.4949ZM4.6981 26.6344C4.38103 26.6344 4.11997 26.3819 4.11165 26.0637C4.1032 25.7402 4.35913 25.471 4.68299 25.4627L9.70912 25.3321C10.0313 25.3274 10.3028 25.5791 10.3111 25.9026C10.3196 26.2261 10.0636 26.4951 9.73962 26.5036L4.71362 26.6342C4.70835 26.6342 4.70323 26.6344 4.6981 26.6344ZM8.13348 39.4077C7.94493 39.4077 7.75985 39.3173 7.64644 39.1495C7.4651 38.8813 7.53594 38.5171 7.80463 38.3361L11.9719 35.5279C12.2406 35.3467 12.6055 35.4176 12.7868 35.6857C12.9682 35.9539 12.8973 36.3181 12.6286 36.4991L8.46123 39.3075C8.36071 39.3753 8.24647 39.4077 8.13348 39.4077ZM40.3691 52.8105H19.1931C18.8688 52.8105 18.6063 52.5482 18.6063 52.2246V48.6305C18.6063 48.3068 18.8688 48.0446 19.1931 48.0446L40.3691 48.0445C40.6933 48.0445 40.956 48.3068 40.956 48.6304V52.2245C40.956 52.5482 40.6933 52.8105 40.3691 52.8105ZM19.78 51.6387H39.7822V49.2164H19.78V51.6387Z" fill="#0074D9"/>
<path fill-rule="evenodd" clip-rule="evenodd" d="M38.103 56.4048H21.4597C21.1354 56.4048 20.8728 56.1425 20.8728 55.8189V52.2247C20.8728 51.9009 21.1354 51.6388 21.4597 51.6388H38.103C38.4271 51.6388 38.6899 51.9009 38.6899 52.2247V55.8189C38.6899 56.1426 38.4271 56.4048 38.103 56.4048ZM22.0465 55.2329H37.5161V52.8106H22.0465V55.2329Z" fill="#0074D9"/>
<path fill-rule="evenodd" clip-rule="evenodd" d="M32.1389 59.999H27.4232C25.1146 59.999 23.2363 58.1238 23.2363 55.8188C23.2363 55.4952 23.4989 55.2329 23.8231 55.2329H35.7391C36.0634 55.2329 36.326 55.4952 36.326 55.8189C36.326 58.1238 34.4478 59.999 32.1389 59.999ZM24.4675 56.4048C24.7413 57.784 25.9626 58.827 27.4233 58.827H32.1391C33.5998 58.827 34.8212 57.784 35.095 56.4048H24.4675Z" fill="#0074D9"/>
</svg>
