<svg width="60" height="60" viewBox="0 0 60 60" fill="none" xmlns="http://www.w3.org/2000/svg">
<path d="M30 0C24.0666 0 18.2664 1.75947 13.3329 5.05591C8.39943 8.35235 4.55426 13.0377 2.28363 18.5195C0.0129985 24.0013 -0.581101 30.0333 0.576455 35.8527C1.73401 41.6721 4.59123 47.0176 8.78681 51.2132C12.9824 55.4088 18.3279 58.266 24.1473 59.4235C29.9667 60.5811 35.9987 59.987 41.4805 57.7164C46.9623 55.4457 51.6476 51.6006 54.9441 46.6671C58.2405 41.7336 60 35.9334 60 30C59.9911 22.0462 56.8275 14.4208 51.2034 8.79662C45.5792 3.17245 37.9538 0.00889328 30 0ZM30 55.2C25.0159 55.2 20.1438 53.722 15.9996 50.953C11.8555 48.184 8.62558 44.2483 6.71825 39.6436C4.81092 35.0389 4.31188 29.972 5.28422 25.0837C6.25657 20.1954 8.65664 15.7052 12.1809 12.1809C15.7052 8.65662 20.1954 6.25656 25.0837 5.28421C29.9721 4.31186 35.0389 4.81091 39.6436 6.71823C44.2483 8.62556 48.184 11.8555 50.953 15.9996C53.722 20.1437 55.2 25.0159 55.2 30C55.1924 36.6811 52.5349 43.0864 47.8107 47.8107C43.0864 52.5349 36.6811 55.1924 30 55.2ZM30 19.2C30.9494 19.2 31.8774 18.9185 32.6667 18.391C33.4561 17.8636 34.0713 17.114 34.4346 16.2369C34.7979 15.3598 34.893 14.3947 34.7078 13.4636C34.5226 12.5325 34.0654 11.6772 33.3941 11.0059C32.7228 10.3346 31.8675 9.87744 30.9364 9.69223C30.0053 9.50702 29.0402 9.60207 28.1631 9.96537C27.286 10.3287 26.5364 10.9439 26.009 11.7333C25.4815 12.5226 25.2 13.4506 25.2 14.4C25.2 15.673 25.7057 16.8939 26.6059 17.7941C27.5061 18.6943 28.727 19.2 30 19.2ZM42.8544 19.224L30.2976 21.0528C30.1002 21.0815 29.8998 21.0815 29.7024 21.0528L17.1456 19.224C16.5155 19.1323 15.8747 19.2948 15.3643 19.6755C14.8539 20.0563 14.5157 20.6242 14.424 21.2544C14.3324 21.8845 14.4948 22.5253 14.8755 23.0357C15.2563 23.5461 15.8243 23.8843 16.4544 23.976L24.1824 25.0992C24.3232 25.1194 24.452 25.1898 24.545 25.2974C24.638 25.405 24.6891 25.5426 24.6888 25.6848V34.9464L24.4848 35.892L19.5264 46.7904C19.2056 47.3403 19.1164 47.9952 19.2784 48.6109C19.4405 49.2266 19.8405 49.7528 20.3904 50.0736C20.9404 50.3944 21.5952 50.4836 22.2109 50.3216C22.8267 50.1595 23.3528 49.7595 23.6736 49.2096L29.4192 37.2504C29.4735 37.1372 29.5587 37.0417 29.665 36.9749C29.7714 36.9081 29.8944 36.8728 30.02 36.8731C30.1455 36.8733 30.2684 36.9091 30.3745 36.9763C30.4805 37.0435 30.5654 37.1394 30.6192 37.2528L36.3264 49.2096C36.6472 49.7595 37.1733 50.1595 37.7891 50.3216C38.4048 50.4836 39.0597 50.3944 39.6096 50.0736C40.1596 49.7528 40.5595 49.2266 40.7216 48.6109C40.8836 47.9952 40.7944 47.3403 40.4736 46.7904L35.4384 35.7192L35.3112 35.1312V25.6848C35.3108 25.5429 35.3616 25.4056 35.4541 25.2981C35.5467 25.1906 35.6749 25.12 35.8152 25.0992L43.5432 23.976C43.8552 23.9308 44.1553 23.8245 44.4262 23.6633C44.6972 23.5021 44.9338 23.2892 45.1224 23.0366C45.3111 22.7839 45.4481 22.4966 45.5257 22.1911C45.6034 21.8855 45.62 21.5676 45.5748 21.2556C45.5296 20.9436 45.4233 20.6435 45.2621 20.3726C45.101 20.1016 44.888 19.865 44.6354 19.6764C44.3827 19.4877 44.0954 19.3507 43.7899 19.2731C43.4843 19.1954 43.1664 19.1788 42.8544 19.224Z" fill="#0074D9"/>
</svg>
